{
    "asset" : {
        "generator" : "Khronos glTF Blender I/O v1.1.46",
        "version" : "2.0"
    },
    "scene" : 0,
    "scenes" : [
        {
            "name" : "Scene",
            "nodes" : [
                4
            ]
        }
    ],
    "nodes" : [
        {
            "mesh" : 0,
            "name" : "Prop",
            "translation" : [
                1.9191499948501587,
                -3.4093198776245117,
                0.6840609908103943
            ]
        },
        {
            "mesh" : 0,
            "name" : "Prop__2_",
            "translation" : [
                1.9191499948501587,
                3.4093198776245117,
                0.6840609908103943
            ]
        },
        {
            "children" : [
                0,
                1
            ],
            "name" : "1111",
            "rotation" : [
                0.7071068286895752,
                0.7071068286895752,
                0,
                -5.960465188081798e-08
            ]
        },
        {
            "children" : [
                2
            ],
            "mesh" : 1,
            "name" : "11"
        },
        {
            "children" : [
                3
            ],
            "name" : "1",
            "rotation" : [
                0.7071067690849304,
                0,
                0,
                0.7071067690849304
            ]
        }
    ],
    "animations" : [
        {
            "channels" : [
                {
                    "sampler" : 0,
                    "target" : {
                        "node" : 1,
                        "path" : "rotation"
                    }
                }
            ],
            "name" : "PropAction_Prop__2__Prop__2_",
            "samplers" : [
                {
                    "input" : 12,
                    "interpolation" : "LINEAR",
                    "output" : 13
                }
            ]
        },
        {
            "channels" : [
                {
                    "sampler" : 0,
                    "target" : {
                        "node" : 0,
                        "path" : "rotation"
                    }
                }
            ],
            "name" : "Prop__2_Action_Prop_Prop",
            "samplers" : [
                {
                    "input" : 12,
                    "interpolation" : "LINEAR",
                    "output" : 14
                }
            ]
        }
    ],
    "materials" : [
        {
            "doubleSided" : true,
            "emissiveFactor" : [
                0,
                0,
                0
            ],
            "name" : "Material_0",
            "pbrMetallicRoughness" : {
                "baseColorTexture" : {
                    "index" : 0,
                    "texCoord" : 0
                },
                "metallicFactor" : 0,
                "roughnessFactor" : 0.5
            }
        },
        {
            "alphaMode" : "BLEND",
            "doubleSided" : true,
            "emissiveFactor" : [
                0,
                0,
                0
            ],
            "name" : "prop",
            "pbrMetallicRoughness" : {
                "baseColorTexture" : {
                    "index" : 1,
                    "texCoord" : 0
                },
                "metallicFactor" : 0,
                "roughnessFactor" : 0.5
            }
        }
    ],
    "meshes" : [
        {
            "name" : "Prop",
            "primitives" : [
                {
                    "attributes" : {
                        "POSITION" : 0,
                        "NORMAL" : 1,
                        "TEXCOORD_0" : 2
                    },
                    "indices" : 3,
                    "material" : 0
                },
                {
                    "attributes" : {
                        "POSITION" : 4,
                        "NORMAL" : 5,
                        "TEXCOORD_0" : 6
                    },
                    "indices" : 7,
                    "material" : 1
                }
            ]
        },
        {
            "name" : "111",
            "primitives" : [
                {
                    "attributes" : {
                        "POSITION" : 8,
                        "NORMAL" : 9,
                        "TEXCOORD_0" : 10
                    },
                    "indices" : 11,
                    "material" : 0
                }
            ]
        }
    ],
    "textures" : [
        {
            "source" : 0
        },
        {
            "source" : 1
        }
    ],
    "images" : [
        {
            "bufferView" : 4,
            "mimeType" : "image/png",
            "name" : "Image_0"
        },
        {
            "bufferView" : 9,
            "mimeType" : "image/png",
            "name" : "Image_1"
        }
    ],
    "accessors" : [
        {
            "bufferView" : 0,
            "componentType" : 5126,
            "count" : 78,
            "max" : [
                0.5895140171051025,
                0.25182101130485535,
                0.25182101130485535
            ],
            "min" : [
                -2.2888199964654632e-05,
                -0.25182101130485535,
                -0.25182101130485535
            ],
            "type" : "VEC3"
        },
        {
            "bufferView" : 1,
            "componentType" : 5126,
            "count" : 78,
            "type" : "VEC3"
        },
        {
            "bufferView" : 2,
            "componentType" : 5126,
            "count" : 78,
            "type" : "VEC2"
        },
        {
            "bufferView" : 3,
            "componentType" : 5123,
            "count" : 360,
            "type" : "SCALAR"
        },
        {
            "bufferView" : 5,
            "componentType" : 5126,
            "count" : 72,
            "max" : [
                0.08199869841337204,
                1.5962499380111694,
                1.5962599515914917
            ],
            "min" : [
                0.08199869841337204,
                -1.5962499380111694,
                -1.596229910850525
            ],
            "type" : "VEC3"
        },
        {
            "bufferView" : 6,
            "componentType" : 5126,
            "count" : 72,
            "type" : "VEC3"
        },
        {
            "bufferView" : 7,
            "componentType" : 5126,
            "count" : 72,
            "type" : "VEC2"
        },
        {
            "bufferView" : 8,
            "componentType" : 5123,
            "count" : 72,
            "type" : "SCALAR"
        },
        {
            "bufferView" : 10,
            "componentType" : 5126,
            "count" : 3888,
            "max" : [
                12.868297576904297,
                8.004698753356934,
                2.2960000038146973
            ],
            "min" : [
                -12.868298530578613,
                -13.39689826965332,
                -5.464059352874756
            ],
            "type" : "VEC3"
        },
        {
            "bufferView" : 11,
            "componentType" : 5126,
            "count" : 3888,
            "type" : "VEC3"
        },
        {
            "bufferView" : 12,
            "componentType" : 5126,
            "count" : 3888,
            "type" : "VEC2"
        },
        {
            "bufferView" : 13,
            "componentType" : 5123,
            "count" : 17088,
            "type" : "SCALAR"
        },
        {
            "bufferView" : 14,
            "componentType" : 5126,
            "count" : 31,
            "max" : [
                1.25
            ],
            "min" : [
                0
            ],
            "type" : "SCALAR"
        },
        {
            "bufferView" : 15,
            "componentType" : 5126,
            "count" : 31,
            "type" : "VEC4"
        },
        {
            "bufferView" : 16,
            "componentType" : 5126,
            "count" : 31,
            "type" : "VEC4"
        }
    ],
    "bufferViews" : [
        {
            "buffer" : 0,
            "byteLength" : 936,
            "byteOffset" : 0
        },
        {
            "buffer" : 0,
            "byteLength" : 936,
            "byteOffset" : 936
        },
        {
            "buffer" : 0,
            "byteLength" : 624,
            "byteOffset" : 1872
        },
        {
            "buffer" : 0,
            "byteLength" : 720,
            "byteOffset" : 2496
        },
        {
            "buffer" : 0,
            "byteLength" : 687715,
            "byteOffset" : 3216
        },
        {
            "buffer" : 0,
            "byteLength" : 864,
            "byteOffset" : 690932
        },
        {
            "buffer" : 0,
            "byteLength" : 864,
            "byteOffset" : 691796
        },
        {
            "buffer" : 0,
            "byteLength" : 576,
            "byteOffset" : 692660
        },
        {
            "buffer" : 0,
            "byteLength" : 144,
            "byteOffset" : 693236
        },
        {
            "buffer" : 0,
            "byteLength" : 190237,
            "byteOffset" : 693380
        },
        {
            "buffer" : 0,
            "byteLength" : 46656,
            "byteOffset" : 883620
        },
        {
            "buffer" : 0,
            "byteLength" : 46656,
            "byteOffset" : 930276
        },
        {
            "buffer" : 0,
            "byteLength" : 31104,
            "byteOffset" : 976932
        },
        {
            "buffer" : 0,
            "byteLength" : 34176,
            "byteOffset" : 1008036
        },
        {
            "buffer" : 0,
            "byteLength" : 124,
            "byteOffset" : 1042212
        },
        {
            "buffer" : 0,
            "byteLength" : 496,
            "byteOffset" : 1042336
        },
        {
            "buffer" : 0,
            "byteLength" : 496,
            "byteOffset" : 1042832
        }
    ],
    "buffers" : [
        {
            "byteLength" : 1043328,
            "uri" : "data:application/octet-stream;base64,"
        }
    ]
}
